<?xml version="1.0" encoding="utf-8"?>
<!-- Generator: Adobe Illustrator 19.1.0, SVG Export Plug-In . SVG Version: 6.00 Build 0)  -->
<svg version="1.1" id="Layer_1" xmlns="http://www.w3.org/2000/svg" xmlns:xlink="http://www.w3.org/1999/xlink" x="0px" y="0px"
	 viewBox="-353 79.7 91.9 42.3" style="enable-background:new -353 79.7 91.9 42.3;" xml:space="preserve">
<style type="text/css">
	.st0{fill:#ED1C24;}
	.st1{fill:none;}
	.st2{fill:#FFFFFF;}
</style>
<g>
	<path class="st0" d="M-261.1,98.2c-0.1-1.7-1.2-3.1-2.7-3.7l-0.8-13.1c-0.1-1-0.9-1.8-2-1.7l-82.8,4.6c-1,0.1-1.8,0.9-1.8,2l0.7,13
		c-1.5,0.8-2.5,2.4-2.5,4.2c0.1,1.8,1.3,3.3,2.9,3.8l0.7,13c0.1,1,0.9,1.8,2,1.7l83-4.6c1-0.1,1.8-0.9,1.7-2l-0.9-13.1
		C-262,101.5-261,100-261.1,98.2z M-350.2,104.1c-0.5,0-0.9-0.4-0.9-0.9s0.4-0.9,0.9-0.9s0.9,0.4,0.9,0.9
		C-349.3,103.6-349.6,104.1-350.2,104.1z M-263.7,99.3c-0.5,0-0.9-0.4-0.9-0.9s0.4-0.9,0.9-0.9s0.9,0.4,0.9,0.9
		S-263.2,99.3-263.7,99.3z"/>
	<circle class="st1" cx="-350.2" cy="103.1" r="0.9"/>
	<g>
		<path class="st2" d="M-329,103.8l-2.7,2.8l-5.8,0.3l-3.1-2.5l-0.2-2.8l4.5-0.3l0.1,1.3l2.5-0.2l-0.2-3l-4.1,0.3l-2.9-2.5l-0.3-5.9
			l2.7-2.8l5.7-0.3l3.1,2.5l0.2,2.8l-4.5,0.3l-0.1-1.3l-2.5,0.2l0.2,3l3.9-0.4l3.1,2.5L-329,103.8z M-313.8,105.6l-9.7,0.5l-3.1-2.5
			l-0.7-13l2.7-2.8l5.7-0.4l3.1,2.5l0.7,11.8l-1.1,1.2l2.3-0.2L-313.8,105.6z M-319.6,101.8l-0.6-10.1l-2.5,0.2l0.6,10.1
			L-319.6,101.8z M-300.6,102.2l-2.7,2.8l-5.7,0.3l-3.1-2.5l-0.9-15.7l4.5-0.3l0.8,14.3l2.5-0.2l-0.8-14.2l4.4-0.3L-300.6,102.2z
			 M-286.3,104.1l-4.4,0.3l-0.6-2.5l-3.3,0.2l-0.3,2.5l-4.5,0.3l2.6-18.6l5.9-0.3L-286.3,104.1z M-292.3,97.7l-1.2-4.7l-0.6,4.8
			L-292.3,97.7z M-273.9,100.8l-2.7,2.8l-8.6,0.5l-1-18.4l8.6-0.5l3.1,2.5L-273.9,100.8z M-278.4,99.5l-0.6-10.1l-2.5,0.2l0.6,10.1
			L-278.4,99.5z"/>
	</g>
	<g>
		<path class="st2" d="M-338.7,109.1l2.2-0.1l0.3,6l3.9-0.3l0.1,1.4l-6.1,0.3L-338.7,109.1z M-319.8,111.7c0.2,2.5-1.7,4-4.6,4.2
			c-2.9,0.2-4.7-1.4-4.8-3.6c-0.1-2.2,1.7-4,4.5-4.2C-321.7,108.1-320,109.7-319.8,111.7z M-326.8,112.2c0.1,1.4,1,2.5,2.5,2.4
			s2.3-1.2,2.2-2.6c-0.1-1.4-0.9-2.5-2.5-2.4S-326.9,110.8-326.8,112.2z M-308.2,114.7c-0.4,0.2-1.3,0.4-2.5,0.4
			c-3.4,0.2-5.2-1.4-5.3-3.5c-0.2-2.5,2.1-4.1,5.1-4.2c1.1-0.1,2,0.1,2.5,0.2l-0.3,1.4c-0.4-0.1-1.1-0.3-1.9-0.2
			c-1.7,0.1-3.1,1-3,2.6c0.1,1.5,1.3,2.4,3.2,2.3c0.7,0,1.4-0.2,1.9-0.3L-308.2,114.7z M-304.2,107.2l2.2-0.1l0.2,3.3
			c0.2-0.3,0.4-0.6,0.6-0.8l2-2.6l2.7-0.2l-3,3.3l3.7,4.1l-2.5,0.1l-2.6-3l-0.8,0.8l0.2,2.5l-2.2,0.1L-304.2,107.2L-304.2,107.2z
			 M-286.3,110.5l-3.6,0.2l0.1,1.8l4-0.3l0.1,1.4l-6.2,0.3l-0.4-7.5l6-0.3l0.1,1.4l-3.8,0.3l0.1,1.5l3.6-0.2V110.5z M-281.8,106.1
			c0.7-0.2,1.8-0.3,3-0.3c1.4-0.1,2.5,0,3.2,0.4c0.6,0.3,0.9,0.8,1,1.5c0.1,0.9-0.8,1.6-1.6,2c0.7,0.2,1.1,0.7,1.4,1.3
			c0.3,0.8,0.7,1.8,0.9,2l-2.3,0.1c-0.2-0.3-0.4-0.8-0.8-1.7c-0.3-0.9-0.8-1.1-1.7-1.1h-0.7l0.2,2.9l-2.2,0.1L-281.8,106.1z
			 M-279.4,109.2l0.8-0.1c1.1-0.1,1.7-0.5,1.7-1.2c0-0.7-0.7-1-1.7-0.9c-0.5,0-0.8,0.1-1,0.1L-279.4,109.2z"/>
	</g>
	<g>
		<path class="st2" d="M-343.8,120v-0.4l2.3-0.1v0.4L-343.8,120z M-346.2,119.9c-0.8-0.3-1.3-1-1.4-1.9v-0.1h0.4v0.1
			c0,0.7,0.4,1.3,1,1.5V119.9z M-339.3,119.8v-0.4l2.3-0.1v0.4L-339.3,119.8z M-334.7,119.5v-0.4l2.3-0.1v0.4L-334.7,119.5z
			 M-330.2,119.3v-0.4l2.3-0.1v0.4L-330.2,119.3z M-325.7,119v-0.4l2.3-0.1v0.4L-325.7,119z M-321.2,118.8v-0.4l2.3-0.1v0.4
			L-321.2,118.8z M-316.6,118.6v-0.4l2.3-0.1v0.4L-316.6,118.6z M-312.1,118.3v-0.4l2.3-0.1v0.4L-312.1,118.3z M-307.5,118.1v-0.4
			l2.3-0.1v0.4L-307.5,118.1z M-303,117.8v-0.4l2.3-0.1v0.4L-303,117.8z M-298.4,117.6v-0.4l2.3-0.1v0.4L-298.4,117.6z
			 M-293.9,117.4V117l2.3-0.1v0.4L-293.9,117.4z M-289.3,117.1v-0.4l2.3-0.1v0.4L-289.3,117.1z M-284.8,116.9v-0.4l2.3-0.1v0.4
			L-284.8,116.9z M-280.2,116.6v-0.4l2.3-0.1v0.4L-280.2,116.6z M-275.7,116.4V116l2.3-0.1v0.4L-275.7,116.4z M-271.1,116.1v-0.4
			l2.3-0.1v0.4L-271.1,116.1z M-266.6,115.9l-0.2-0.4c0.7-0.3,1.1-0.8,1.1-1.5l-0.1-1.9h0.4l0.1,1.9
			C-265.2,114.8-265.7,115.5-266.6,115.9z M-347.7,115.7l-0.2-2.2h0.4l0.1,2.3L-347.7,115.7z M-347.9,111.2l-0.1-2.3h0.4l0.1,2.2
			L-347.9,111.2z M-265.9,109.8l-0.2-2.3h0.4l0.2,2.3H-265.9z M-348.2,106.6v-2.3h0.4l0.1,2.3H-348.2z M-266.1,105.3l-0.2-2.3h0.4
			l0.2,2.3H-266.1z M-348.4,102.1l-0.1-2.3h0.4l0.1,2.3H-348.4z M-266.4,100.7l-0.2-2.3h0.4l0.2,2.3H-266.4z M-348.7,97.5l-0.1-2.3
			h0.4l0.2,2.3H-348.7z M-266.6,96.2l-0.2-2.3h0.4l0.2,2.3H-266.6z M-348.9,93l-0.1-2.3h0.4l0.1,2.3H-348.9z M-266.9,91.6l-0.2-2.3
			h0.4l0.2,2.3H-266.9z M-349.1,88.4l-0.1-0.8c0-0.6,0.3-1.1,0.6-1.4l0.3,0.3c-0.3,0.3-0.5,0.7-0.5,1.1l0.1,0.8H-349.1z
			 M-267.2,87.1l-0.2-2.3h0.4l0.2,2.3C-266.8,87.1-267.2,87.1-267.2,87.1z M-346.3,86v-0.4l2.3-0.2v0.4L-346.3,86z M-341.7,85.7
			v-0.4l2.3-0.2v0.4L-341.7,85.7z M-337.2,85.5v-0.4l2.3-0.2v0.4L-337.2,85.5z M-332.6,85.2v-0.4l2.3-0.2V85L-332.6,85.2z
			 M-328.1,85v-0.4l2.3-0.2v0.4L-328.1,85z M-323.5,84.7v-0.4l2.3-0.2v0.4L-323.5,84.7z M-319,84.5v-0.4l2.3-0.2v0.4L-319,84.5z
			 M-314.4,84.2v-0.4l2.3-0.2V84L-314.4,84.2z M-309.9,83.9v-0.4l2.3-0.2v0.4L-309.9,83.9z M-305.4,83.7v-0.4l2.2-0.2v0.4
			L-305.4,83.7z M-300.9,83.4V83l2.3-0.2v0.5L-300.9,83.4z M-296.3,83.2v-0.4l2.3-0.2V83L-296.3,83.2z M-291.8,82.9v-0.4l2.3-0.2
			v0.4L-291.8,82.9z M-287.2,82.6v-0.4l2.2-0.1v0.4L-287.2,82.6z M-267.5,82.6c-0.3-0.6-0.8-1-1.5-1h-0.1v-0.4h0.1
			c0.8,0,1.6,0.5,2,1.3L-267.5,82.6z M-282.7,82.3v-0.4l2.3-0.2v0.4L-282.7,82.3z M-278.1,82.1v-0.4l2.3-0.2v0.4L-278.1,82.1z
			 M-273.6,81.8v-0.4l2.3-0.2v0.4L-273.6,81.8z"/>
	</g>
</g>
</svg>
